<svg width="10" height="12" viewBox="0 0 10 12" fill="none" xmlns="http://www.w3.org/2000/svg">
<path d="M1.52588e-05 7.25C1.52588e-05 6.15625 0.260432 5.18229 0.781265 4.32812C1.3021 3.47396 1.87501 2.75521 2.50001 2.17188C3.12501 1.58854 3.69793 1.14312 4.21876 0.835625L5.00001 0.375V2.4375C5.00001 2.82292 5.13022 3.1275 5.39064 3.35125C5.65106 3.575 5.94272 3.68708 6.26564 3.6875C6.44272 3.6875 6.6121 3.65104 6.77376 3.57812C6.93543 3.50521 7.08376 3.38542 7.21876 3.21875L7.50001 2.875C8.25001 3.3125 8.85418 3.91917 9.31251 4.695C9.77085 5.47083 10 6.3225 10 7.25C10 8.16667 9.77605 9.00271 9.32814 9.75813C8.88022 10.5135 8.29168 11.1096 7.56251 11.5463C7.7396 11.2963 7.87772 11.0227 7.97689 10.7256C8.07606 10.4285 8.12543 10.1137 8.12501 9.78125C8.12501 9.36458 8.04689 8.97125 7.89064 8.60125C7.73439 8.23125 7.51043 7.90062 7.21876 7.60938L5.00001 5.4375L2.79689 7.60938C2.49481 7.91146 2.26564 8.24479 2.10939 8.60938C1.95314 8.97396 1.87501 9.36458 1.87501 9.78125C1.87501 10.1146 1.9246 10.4298 2.02376 10.7269C2.12293 11.024 2.26085 11.2973 2.43751 11.5469C1.70835 11.1094 1.11981 10.5129 0.67189 9.7575C0.223973 9.00208 1.52588e-05 8.16625 1.52588e-05 7.25ZM5.00001 7.1875L6.32814 8.48438C6.50522 8.66146 6.64064 8.85938 6.73439 9.07812C6.82814 9.29687 6.87501 9.53125 6.87501 9.78125C6.87501 10.2917 6.69272 10.7265 6.32814 11.0856C5.96356 11.4448 5.52085 11.6246 5.00001 11.625C4.47918 11.625 4.03647 11.4452 3.67189 11.0856C3.30731 10.726 3.12501 10.2912 3.12501 9.78125C3.12501 9.54167 3.17189 9.30979 3.26564 9.08562C3.35939 8.86146 3.49481 8.66104 3.67189 8.48438L5.00001 7.1875Z" fill="white"/>
</svg>
