<svg width="10" height="10" viewBox="0 0 10 10" fill="none" xmlns="http://www.w3.org/2000/svg">
<path fill-rule="evenodd" clip-rule="evenodd" d="M3.96903 6.83337H3.10873C2.56464 6.83337 2.04865 7.07505 1.70033 7.49304L1.2113 8.07987C0.713756 8.67692 1.13832 9.58337 1.9155 9.58337H8.08459C8.86178 9.58337 9.28633 8.67692 8.78879 8.07987L8.29976 7.49304C7.95144 7.07505 7.43545 6.83337 6.89136 6.83337H6.0313V7.52087C6.0313 8.09042 5.56959 8.55212 5.00005 8.55212C4.4305 8.55212 3.9688 8.09042 3.9688 7.52087L3.96903 6.83337Z" fill="white"/>
<path d="M5.34375 7.52083C5.34375 7.71068 5.18985 7.86458 5 7.86458C4.81015 7.86458 4.65625 7.71068 4.65625 7.52083L4.65846 1.10417C4.65846 0.597906 5.06887 0.1875 5.57513 0.1875H8.04187C8.38258 0.1875 8.60418 0.54606 8.45181 0.850806L7.96928 1.81586C7.90477 1.94489 7.90477 2.09677 7.96928 2.22581L8.45181 3.19086C8.60418 3.49561 8.38258 3.85417 8.04187 3.85417H5.34375V7.52083Z" fill="white"/>
</svg>
